<svg width="343" height="256" viewBox="0 0 343 256" fill="none" xmlns="http://www.w3.org/2000/svg">
<rect width="343" height="256" fill="white"/>
<path opacity="0.2" d="M109.103 21.4383H121.112V27.4431C121.112 30.7594 118.424 33.4478 115.108 33.4478C111.791 33.4478 109.103 30.7594 109.103 27.4431V21.4383Z" fill="#C2C2C2" stroke="#5C5C5C" stroke-width="0.522153"/>
<path opacity="0.2" d="M109.103 18.5665C109.103 17.8455 109.687 17.2611 110.408 17.2611H119.807C120.528 17.2611 121.112 17.8455 121.112 18.5665C121.112 19.2874 120.528 19.8718 119.807 19.8718H110.408C109.687 19.8718 109.103 19.2874 109.103 18.5665Z" fill="#C2C2C2" stroke="#5C5C5C" stroke-width="0.522153"/>
<path opacity="0.2" d="M122.679 21.4383H125.29V27.9652C125.29 28.6862 124.705 29.2706 123.984 29.2706C123.263 29.2706 122.679 28.6862 122.679 27.9652V21.4383Z" fill="#C2C2C2" stroke="#5C5C5C" stroke-width="0.522153"/>
<path opacity="0.2" d="M104.926 21.4383H107.536V27.9652C107.536 28.6862 106.952 29.2706 106.231 29.2706C105.51 29.2706 104.926 28.6862 104.926 27.9652V21.4383Z" fill="#C2C2C2" stroke="#5C5C5C" stroke-width="0.522153"/>
<rect opacity="0.2" x="89.2611" y="38.1472" width="51.6931" height="16.1867" fill="#C2C2C2" stroke="#5C5C5C" stroke-width="0.522153"/>
<path d="M108.842 113.076H121.373V119.342C121.373 122.803 118.568 125.608 115.108 125.608C111.647 125.608 108.842 122.803 108.842 119.342V113.076Z" fill="#FE5F55"/>
<path d="M108.842 110.465C108.842 109.6 109.543 108.899 110.408 108.899H119.807C120.672 108.899 121.373 109.6 121.373 110.465C121.373 111.331 120.672 112.032 119.807 112.032H110.408C109.543 112.032 108.842 111.331 108.842 110.465Z" fill="#FE5F55"/>
<path d="M122.418 113.076H125.551V119.864C125.551 120.729 124.849 121.431 123.984 121.431C123.119 121.431 122.418 120.729 122.418 119.864V113.076Z" fill="#FE5F55"/>
<path d="M104.665 113.076H107.797V119.864C107.797 120.729 107.096 121.431 106.231 121.431C105.366 121.431 104.665 120.729 104.665 119.864V113.076Z" fill="#FE5F55"/>
<rect x="89" y="129.785" width="52.2153" height="16.7089" fill="#FE5F55"/>
<path opacity="0.2" d="M121.112 91.9289L109.102 91.9289L109.102 85.9242C109.102 82.6078 111.791 79.9194 115.107 79.9194C118.424 79.9194 121.112 82.6079 121.112 85.9242L121.112 91.9289Z" fill="#C2C2C2" stroke="#5C5C5C" stroke-width="0.522153"/>
<path opacity="0.2" d="M121.112 94.8008C121.112 95.5217 120.528 96.1062 119.807 96.1062L110.408 96.1062C109.687 96.1062 109.102 95.5217 109.102 94.8008C109.102 94.0798 109.687 93.4954 110.408 93.4954L119.807 93.4954C120.528 93.4954 121.112 94.0798 121.112 94.8008Z" fill="#C2C2C2" stroke="#5C5C5C" stroke-width="0.522153"/>
<path opacity="0.2" d="M107.536 91.9289L104.925 91.9289L104.925 85.402C104.925 84.6811 105.51 84.0967 106.231 84.0967C106.952 84.0967 107.536 84.6811 107.536 85.402L107.536 91.9289Z" fill="#C2C2C2" stroke="#5C5C5C" stroke-width="0.522153"/>
<path opacity="0.2" d="M125.289 91.9289L122.678 91.9289L122.678 85.402C122.678 84.6811 123.263 84.0967 123.984 84.0967C124.705 84.0967 125.289 84.6811 125.289 85.402L125.289 91.9289Z" fill="#C2C2C2" stroke="#5C5C5C" stroke-width="0.522153"/>
<rect opacity="0.2" x="140.954" y="75.2201" width="51.6931" height="16.1867" transform="rotate(-180 140.954 75.2201)" fill="#C2C2C2" stroke="#5C5C5C" stroke-width="0.522153"/>
<path opacity="0.2" d="M121.112 183.828L109.102 183.828L109.102 177.823C109.102 174.507 111.791 171.818 115.107 171.818C118.424 171.818 121.112 174.507 121.112 177.823L121.112 183.828Z" fill="#C2C2C2" stroke="#5C5C5C" stroke-width="0.522153"/>
<path opacity="0.2" d="M121.112 186.7C121.112 187.421 120.528 188.005 119.807 188.005L110.408 188.005C109.687 188.005 109.102 187.421 109.102 186.7C109.102 185.979 109.687 185.394 110.408 185.394L119.807 185.394C120.528 185.394 121.112 185.979 121.112 186.7Z" fill="#C2C2C2" stroke="#5C5C5C" stroke-width="0.522153"/>
<path opacity="0.2" d="M107.536 183.828L104.925 183.828L104.925 177.301C104.925 176.58 105.51 175.996 106.231 175.996C106.952 175.996 107.536 176.58 107.536 177.301L107.536 183.828Z" fill="#C2C2C2" stroke="#5C5C5C" stroke-width="0.522153"/>
<path opacity="0.2" d="M125.289 183.828L122.678 183.828L122.678 177.301C122.678 176.58 123.263 175.996 123.984 175.996C124.705 175.996 125.289 176.58 125.289 177.301L125.289 183.828Z" fill="#C2C2C2" stroke="#5C5C5C" stroke-width="0.522153"/>
<rect opacity="0.2" x="140.954" y="167.119" width="51.6931" height="16.1867" transform="rotate(-180 140.954 167.119)" fill="#C2C2C2" stroke="#5C5C5C" stroke-width="0.522153"/>
<path d="M121.373 234.216L108.841 234.216L108.841 227.95C108.841 224.489 111.647 221.684 115.107 221.684C118.568 221.684 121.373 224.489 121.373 227.95L121.373 234.216Z" fill="#FE5F55"/>
<path d="M121.373 236.826C121.373 237.691 120.672 238.393 119.807 238.393L110.408 238.393C109.543 238.393 108.841 237.691 108.841 236.826C108.841 235.961 109.543 235.26 110.408 235.26L119.807 235.26C120.672 235.26 121.373 235.961 121.373 236.826Z" fill="#FE5F55"/>
<path d="M107.797 234.216L104.664 234.216L104.664 227.428C104.664 226.562 105.365 225.861 106.231 225.861C107.096 225.861 107.797 226.562 107.797 227.428L107.797 234.216Z" fill="#FE5F55"/>
<path d="M125.55 234.216L122.417 234.216L122.417 227.428C122.417 226.562 123.119 225.861 123.984 225.861C124.849 225.861 125.55 226.562 125.55 227.428L125.55 234.216Z" fill="#FE5F55"/>
<rect x="141.215" y="217.507" width="52.2153" height="16.7089" transform="rotate(-180 141.215 217.507)" fill="#FE5F55"/>
<path d="M165.234 21.1772H177.766V27.4431C177.766 30.9036 174.961 33.7089 171.5 33.7089C168.04 33.7089 165.234 30.9036 165.234 27.4431V21.1772Z" fill="#FE5F55"/>
<path d="M165.234 18.5665C165.234 17.7013 165.936 17 166.801 17H176.2C177.065 17 177.766 17.7013 177.766 18.5665C177.766 19.4316 177.065 20.1329 176.2 20.1329H166.801C165.936 20.1329 165.234 19.4316 165.234 18.5665Z" fill="#FE5F55"/>
<path d="M178.81 21.1772H181.943V27.9652C181.943 28.8304 181.242 29.5317 180.377 29.5317C179.512 29.5317 178.81 28.8304 178.81 27.9652V21.1772Z" fill="#FE5F55"/>
<path d="M161.057 21.1772H164.19V27.9652C164.19 28.8304 163.489 29.5317 162.624 29.5317C161.758 29.5317 161.057 28.8304 161.057 27.9652V21.1772Z" fill="#FE5F55"/>
<rect x="145.393" y="37.8861" width="52.2153" height="16.7089" fill="#FE5F55"/>
<path d="M165.495 113.337H177.505V119.342C177.505 122.658 174.817 125.347 171.5 125.347C168.184 125.347 165.495 122.658 165.495 119.342V113.337Z" fill="#FFCB47" stroke="#FFCB47" stroke-width="0.522153"/>
<path d="M165.495 110.465C165.495 109.744 166.08 109.16 166.801 109.16H176.2C176.921 109.16 177.505 109.744 177.505 110.465C177.505 111.186 176.921 111.771 176.2 111.771H166.801C166.08 111.771 165.495 111.186 165.495 110.465Z" fill="#FFCB47" stroke="#FFCB47" stroke-width="0.522153"/>
<path d="M179.071 113.337H181.682V119.864C181.682 120.585 181.098 121.17 180.377 121.17C179.656 121.17 179.071 120.585 179.071 119.864V113.337Z" fill="#FFCB47" stroke="#FFCB47" stroke-width="0.522153"/>
<path d="M161.318 113.337H163.929V119.864C163.929 120.585 163.345 121.17 162.624 121.17C161.903 121.17 161.318 120.585 161.318 119.864V113.337Z" fill="#FFCB47" stroke="#FFCB47" stroke-width="0.522153"/>
<rect x="145.654" y="130.046" width="51.6931" height="16.1867" fill="#FFCB47" stroke="#FFCB47" stroke-width="0.522153"/>
<path d="M177.767 92.19L165.235 92.19L165.235 85.9242C165.235 82.4637 168.04 79.6584 171.501 79.6584C174.961 79.6584 177.767 82.4637 177.767 85.9242L177.767 92.19Z" fill="#FE5F55"/>
<path d="M177.767 94.8008C177.767 95.6659 177.065 96.3672 176.2 96.3672L166.801 96.3672C165.936 96.3672 165.235 95.6659 165.235 94.8008C165.235 93.9357 165.936 93.2343 166.801 93.2343L176.2 93.2343C177.065 93.2343 177.767 93.9357 177.767 94.8008Z" fill="#FE5F55"/>
<path d="M164.191 92.19L161.058 92.19L161.058 85.402C161.058 84.5369 161.759 83.8356 162.624 83.8356C163.489 83.8356 164.191 84.5369 164.191 85.402L164.191 92.19Z" fill="#FE5F55"/>
<path d="M181.944 92.19L178.811 92.19L178.811 85.402C178.811 84.5369 179.512 83.8356 180.377 83.8356C181.242 83.8356 181.944 84.5369 181.944 85.402L181.944 92.19Z" fill="#FE5F55"/>
<rect x="197.608" y="75.4811" width="52.2153" height="16.7089" transform="rotate(-180 197.608 75.4811)" fill="#FE5F55"/>
<path d="M164.903 69.0497C165.862 69.0497 166.495 68.3855 166.495 67.4582V64.5634H165.561V67.4081C165.561 67.8655 165.291 68.1537 164.903 68.1537C164.496 68.1537 164.226 67.8592 164.226 67.4081V67.2953H163.286V67.4582C163.286 68.3855 163.963 69.0497 164.903 69.0497ZM168.967 69.0497C170.013 69.0497 170.796 68.279 170.796 67.2577C170.796 66.2364 170.013 65.4719 168.967 65.4719C167.92 65.4719 167.137 66.2364 167.137 67.2577C167.137 68.279 167.92 69.0497 168.967 69.0497ZM168.967 68.185C168.44 68.185 168.064 67.8091 168.064 67.2577C168.064 66.7126 168.44 66.3303 168.967 66.3303C169.493 66.3303 169.869 66.7126 169.869 67.2577C169.869 67.8091 169.493 68.185 168.967 68.185ZM172.653 69.0497C173.511 69.0497 174.075 68.5986 174.075 67.9093C174.075 67.0822 173.367 66.9695 172.816 66.8692C172.465 66.8065 172.177 66.7502 172.177 66.5246C172.177 66.3303 172.346 66.205 172.628 66.205C172.947 66.205 173.135 66.3366 173.142 66.606H174.013C174.006 65.9293 173.468 65.4719 172.653 65.4719C171.838 65.4719 171.293 65.9168 171.293 66.5559C171.293 67.3517 171.983 67.4958 172.521 67.5898C172.879 67.6462 173.173 67.7151 173.173 67.9469C173.173 68.1725 172.941 68.2916 172.691 68.2916C172.365 68.2916 172.133 68.1412 172.127 67.8404H171.237C171.237 68.561 171.807 69.0497 172.653 69.0497ZM174.748 65.1148H175.657V64.2689H174.748V65.1148ZM174.748 68.9495H175.663V65.5659H174.748V68.9495ZM178.383 65.4719C177.963 65.4719 177.587 65.6223 177.299 65.8792L177.143 65.5659H176.541V70.1713H177.456V68.7678C177.713 68.9495 178.032 69.056 178.383 69.056C179.405 69.056 180.156 68.2853 180.156 67.2577C180.156 66.2364 179.405 65.4719 178.383 65.4719ZM178.308 68.185C177.775 68.185 177.387 67.7903 177.387 67.2577C177.387 66.7314 177.775 66.3303 178.308 66.3303C178.841 66.3303 179.229 66.7314 179.229 67.2577C179.229 67.7903 178.841 68.185 178.308 68.185Z" fill="white"/>
<path d="M168.751 48.0633H169.785L168.012 43.6772H167.116L165.393 48.0633H166.401L166.702 47.2362H168.444L168.751 48.0633ZM167.573 44.8364L168.15 46.4091H166.997L167.573 44.8364ZM172.202 44.6046C171.745 44.6046 171.337 44.7988 171.081 45.0996L170.905 44.6797H170.279V48.0633H171.193V46.2901C171.193 45.7449 171.482 45.4066 171.952 45.4066C172.346 45.4066 172.541 45.6509 172.541 46.1647V48.0633H173.455V46.0144C173.455 45.1559 172.973 44.6046 172.202 44.6046ZM177.05 44.6797L176.956 44.9993C176.661 44.7424 176.279 44.5858 175.84 44.5858C174.825 44.5858 174.067 45.3502 174.067 46.3715C174.067 47.3928 174.825 48.1635 175.84 48.1635C176.273 48.1635 176.649 48.0132 176.937 47.7563L177.018 48.0633H177.733V44.6797H177.05ZM175.915 47.2989C175.383 47.2989 174.994 46.8978 174.994 46.3715C174.994 45.8389 175.383 45.4442 175.915 45.4442C176.448 45.4442 176.837 45.8389 176.837 46.3715C176.837 46.9041 176.448 47.2989 175.915 47.2989Z" fill="white"/>
<path opacity="0.2" d="M177.505 183.828L165.496 183.828L165.496 177.823C165.496 174.507 168.184 171.818 171.501 171.818C174.817 171.818 177.505 174.507 177.505 177.823L177.505 183.828Z" fill="#C2C2C2" stroke="#5C5C5C" stroke-width="0.522153"/>
<path opacity="0.2" d="M177.505 186.7C177.505 187.421 176.921 188.005 176.2 188.005L166.801 188.005C166.08 188.005 165.496 187.421 165.496 186.7C165.496 185.979 166.08 185.394 166.801 185.394L176.2 185.394C176.921 185.394 177.505 185.979 177.505 186.7Z" fill="#C2C2C2" stroke="#5C5C5C" stroke-width="0.522153"/>
<path opacity="0.2" d="M163.93 183.828L161.319 183.828L161.319 177.301C161.319 176.58 161.903 175.996 162.624 175.996C163.345 175.996 163.93 176.58 163.93 177.301L163.93 183.828Z" fill="#C2C2C2" stroke="#5C5C5C" stroke-width="0.522153"/>
<path opacity="0.2" d="M181.683 183.828L179.072 183.828L179.072 177.301C179.072 176.58 179.656 175.996 180.377 175.996C181.098 175.996 181.683 176.58 181.683 177.301L181.683 183.828Z" fill="#C2C2C2" stroke="#5C5C5C" stroke-width="0.522153"/>
<rect opacity="0.2" x="197.347" y="167.119" width="51.6931" height="16.1867" transform="rotate(-180 197.347 167.119)" fill="#C2C2C2" stroke="#5C5C5C" stroke-width="0.522153"/>
<path d="M177.767 234.216L165.235 234.216L165.235 227.95C165.235 224.489 168.04 221.684 171.501 221.684C174.961 221.684 177.767 224.489 177.767 227.95L177.767 234.216Z" fill="#FE5F55"/>
<path d="M177.767 236.826C177.767 237.691 177.065 238.393 176.2 238.393L166.801 238.393C165.936 238.393 165.235 237.691 165.235 236.826C165.235 235.961 165.936 235.26 166.801 235.26L176.2 235.26C177.065 235.26 177.767 235.961 177.767 236.826Z" fill="#FE5F55"/>
<path d="M164.191 234.216L161.058 234.216L161.058 227.428C161.058 226.562 161.759 225.861 162.624 225.861C163.489 225.861 164.191 226.562 164.191 227.428L164.191 234.216Z" fill="#FE5F55"/>
<path d="M181.944 234.216L178.811 234.216L178.811 227.428C178.811 226.562 179.512 225.861 180.377 225.861C181.242 225.861 181.944 226.562 181.944 227.428L181.944 234.216Z" fill="#FE5F55"/>
<rect x="197.608" y="217.507" width="52.2153" height="16.7089" transform="rotate(-180 197.608 217.507)" fill="#FE5F55"/>
<path d="M221.627 21.1772H234.159V27.4431C234.159 30.9036 231.353 33.7089 227.893 33.7089C224.432 33.7089 221.627 30.9036 221.627 27.4431V21.1772Z" fill="#FE5F55"/>
<path d="M221.627 18.5665C221.627 17.7013 222.328 17 223.193 17H232.592C233.457 17 234.159 17.7013 234.159 18.5665C234.159 19.4316 233.457 20.1329 232.592 20.1329H223.193C222.328 20.1329 221.627 19.4316 221.627 18.5665Z" fill="#FE5F55"/>
<path d="M235.203 21.1772H238.336V27.9652C238.336 28.8304 237.635 29.5317 236.769 29.5317C235.904 29.5317 235.203 28.8304 235.203 27.9652V21.1772Z" fill="#FE5F55"/>
<path d="M217.45 21.1772H220.583V27.9652C220.583 28.8304 219.881 29.5317 219.016 29.5317C218.151 29.5317 217.45 28.8304 217.45 27.9652V21.1772Z" fill="#FE5F55"/>
<rect x="201.785" y="37.8861" width="52.2153" height="16.7089" fill="#FE5F55"/>
<path opacity="0.2" d="M233.897 91.9289L221.888 91.9289L221.888 85.9242C221.888 82.6078 224.576 79.9194 227.892 79.9194C231.209 79.9194 233.897 82.6079 233.897 85.9242L233.897 91.9289Z" fill="#C2C2C2" stroke="#5C5C5C" stroke-width="0.522153"/>
<path opacity="0.2" d="M233.897 94.8008C233.897 95.5217 233.313 96.1062 232.592 96.1062L223.193 96.1062C222.472 96.1062 221.888 95.5217 221.888 94.8008C221.888 94.0798 222.472 93.4954 223.193 93.4954L232.592 93.4954C233.313 93.4954 233.897 94.0798 233.897 94.8008Z" fill="#C2C2C2" stroke="#5C5C5C" stroke-width="0.522153"/>
<path opacity="0.2" d="M220.321 91.9289L217.71 91.9289L217.71 85.402C217.71 84.6811 218.295 84.0967 219.016 84.0967C219.737 84.0967 220.321 84.6811 220.321 85.402L220.321 91.9289Z" fill="#C2C2C2" stroke="#5C5C5C" stroke-width="0.522153"/>
<path opacity="0.2" d="M238.074 91.9289L235.464 91.9289L235.464 85.402C235.464 84.6811 236.048 84.0967 236.769 84.0967C237.49 84.0967 238.074 84.6811 238.074 85.402L238.074 91.9289Z" fill="#C2C2C2" stroke="#5C5C5C" stroke-width="0.522153"/>
<rect opacity="0.2" x="253.739" y="75.2201" width="51.6931" height="16.1867" transform="rotate(-180 253.739 75.2201)" fill="#C2C2C2" stroke="#5C5C5C" stroke-width="0.522153"/>
<path d="M108.434 210.975H109.38V206.589H108.434V210.975ZM112.541 207.591L111.727 209.86L110.899 207.591H109.922L111.301 210.975H112.146L113.487 207.591H112.541ZM116.617 207.591L116.523 207.911C116.228 207.654 115.846 207.497 115.407 207.497C114.392 207.497 113.634 208.262 113.634 209.283C113.634 210.305 114.392 211.075 115.407 211.075C115.84 211.075 116.216 210.925 116.504 210.668L116.585 210.975H117.3V207.591H116.617ZM115.483 210.211C114.95 210.211 114.562 209.81 114.562 209.283C114.562 208.751 114.95 208.356 115.483 208.356C116.015 208.356 116.404 208.751 116.404 209.283C116.404 209.816 116.015 210.211 115.483 210.211ZM120.11 207.516C119.652 207.516 119.245 207.711 118.988 208.011L118.813 207.591H118.186V210.975H119.101V209.202C119.101 208.657 119.389 208.318 119.859 208.318C120.254 208.318 120.448 208.563 120.448 209.076V210.975H121.363V208.926C121.363 208.068 120.88 207.516 120.11 207.516Z" fill="white"/>
<path d="M166.647 210.975L165.97 206.589H165.018L163.827 209.283L162.637 206.589H161.691L161.001 210.975H161.966L162.399 208.118L163.708 210.969H163.94L165.25 208.118L165.682 210.975H166.647ZM170.035 207.591L169.941 207.911C169.647 207.654 169.265 207.497 168.826 207.497C167.811 207.497 167.053 208.262 167.053 209.283C167.053 210.305 167.811 211.075 168.826 211.075C169.258 211.075 169.634 210.925 169.923 210.668L170.004 210.975H170.718V207.591H170.035ZM168.901 210.211C168.369 210.211 167.98 209.81 167.98 209.283C167.98 208.751 168.369 208.356 168.901 208.356C169.434 208.356 169.822 208.751 169.822 209.283C169.822 209.816 169.434 210.211 168.901 210.211ZM173.334 207.573C172.895 207.573 172.594 207.711 172.35 208.011L172.187 207.591H171.604V210.975H172.519V209.221C172.519 208.669 172.72 208.437 173.234 208.437H173.635V207.573H173.334ZM174.156 207.14H175.065V206.294H174.156V207.14ZM174.156 210.975H175.071V207.591H174.156V210.975ZM176.024 207.14H176.939V206.294H176.024V207.14ZM175.228 212.197H175.667C176.413 212.197 176.939 211.671 176.939 210.931V207.591H176.024V210.862C176.024 211.188 175.849 211.357 175.523 211.357H175.228V212.197ZM180.572 207.591L180.478 207.911C180.184 207.654 179.802 207.497 179.363 207.497C178.348 207.497 177.59 208.262 177.59 209.283C177.59 210.305 178.348 211.075 179.363 211.075C179.795 211.075 180.171 210.925 180.459 210.668L180.541 210.975H181.255V207.591H180.572ZM179.438 210.211C178.905 210.211 178.517 209.81 178.517 209.283C178.517 208.751 178.905 208.356 179.438 208.356C179.971 208.356 180.359 208.751 180.359 209.283C180.359 209.816 179.971 210.211 179.438 210.211Z" fill="white"/>
<path d="M103.834 135.576H102.179V139.962H103.834C105.124 139.962 106.058 139.041 106.058 137.769C106.058 136.497 105.124 135.576 103.834 135.576ZM103.815 139.085H103.125V136.46H103.815C104.567 136.46 105.087 136.992 105.087 137.769C105.087 138.534 104.567 139.085 103.815 139.085ZM108.365 140.063C109.411 140.063 110.195 139.292 110.195 138.271C110.195 137.249 109.411 136.485 108.365 136.485C107.319 136.485 106.535 137.249 106.535 138.271C106.535 139.292 107.319 140.063 108.365 140.063ZM108.365 139.198C107.839 139.198 107.463 138.822 107.463 138.271C107.463 137.725 107.839 137.343 108.365 137.343C108.891 137.343 109.267 137.725 109.267 138.271C109.267 138.822 108.891 139.198 108.365 139.198ZM114.702 136.504C114.269 136.504 113.887 136.717 113.655 137.042C113.455 136.704 113.104 136.504 112.672 136.504C112.271 136.504 111.901 136.698 111.663 136.999L111.494 136.579H110.855V139.962H111.769V138.133C111.769 137.606 112.014 137.306 112.427 137.306C112.753 137.306 112.929 137.544 112.929 137.995V139.962H113.818V138.133C113.818 137.606 114.063 137.306 114.47 137.306C114.802 137.306 114.977 137.544 114.977 137.995V139.962H115.892V137.844C115.892 137.049 115.404 136.504 114.702 136.504ZM116.735 136.128H117.643V135.282H116.735V136.128ZM116.735 139.962H117.65V136.579H116.735V139.962ZM120.451 136.504C119.994 136.504 119.587 136.698 119.33 136.999L119.154 136.579H118.528V139.962H119.443V138.189C119.443 137.644 119.731 137.306 120.201 137.306C120.596 137.306 120.79 137.55 120.79 138.064V139.962H121.705V137.913C121.705 137.055 121.222 136.504 120.451 136.504ZM122.542 136.128H123.45V135.282H122.542V136.128ZM122.542 139.962H123.457V136.579H122.542V139.962ZM127.524 139.962L126.252 138.195L127.399 136.579H126.346L125.331 138.083V135.363H124.416V139.962H125.331V138.346L126.415 139.962H127.524Z" fill="white"/>
<path d="M170.048 135.576H169.033L168.018 137.337L167.009 135.576H166L167.529 138.189V139.962H168.5V138.195L170.048 135.576ZM171.614 140.063C172.66 140.063 173.443 139.292 173.443 138.271C173.443 137.249 172.66 136.485 171.614 136.485C170.567 136.485 169.784 137.249 169.784 138.271C169.784 139.292 170.567 140.063 171.614 140.063ZM171.614 139.198C171.087 139.198 170.711 138.822 170.711 138.271C170.711 137.725 171.087 137.343 171.614 137.343C172.14 137.343 172.516 137.725 172.516 138.271C172.516 138.822 172.14 139.198 171.614 139.198ZM175.645 140.063C176.603 140.063 177.236 139.448 177.236 138.534V136.579H176.321V138.433C176.321 138.91 176.071 139.198 175.645 139.198C175.225 139.198 174.968 138.916 174.968 138.433V136.579H174.053V138.534C174.053 139.448 174.692 140.063 175.645 140.063Z" fill="white"/>
<path d="M222.969 48.0633L222.292 43.6772H221.34L220.15 46.3715L218.959 43.6772H218.013L217.324 48.0633H218.289L218.721 45.2061L220.03 48.057H220.262L221.572 45.2061L222.004 48.0633H222.969ZM226.358 44.6797L226.264 44.9993C225.969 44.7424 225.587 44.5858 225.148 44.5858C224.133 44.5858 223.375 45.3502 223.375 46.3715C223.375 47.3928 224.133 48.1635 225.148 48.1635C225.581 48.1635 225.957 48.0132 226.245 47.7563L226.326 48.0633H227.041V44.6797H226.358ZM225.223 47.2989C224.691 47.2989 224.302 46.8978 224.302 46.3715C224.302 45.8389 224.691 45.4442 225.223 45.4442C225.756 45.4442 226.144 45.8389 226.144 46.3715C226.144 46.9041 225.756 47.2989 225.223 47.2989ZM229.581 47.2487C229.243 47.2487 229.055 47.0608 229.055 46.7349V45.4191H229.976V44.6797H229.042V43.8025H228.867L227.532 45.2186V45.4191H228.14V46.8603C228.14 47.6059 228.597 48.0633 229.343 48.0633H229.994V47.2487H229.581ZM230.619 44.2286H231.528V43.3827H230.619V44.2286ZM230.619 48.0633H231.534V44.6797H230.619V48.0633ZM232.487 44.2286H233.402V43.3827H232.487V44.2286ZM231.691 49.2851H232.13C232.876 49.2851 233.402 48.7588 233.402 48.0194V44.6797H232.487V47.9505C232.487 48.2763 232.312 48.4455 231.986 48.4455H231.691V49.2851ZM237.035 44.6797L236.941 44.9993C236.647 44.7424 236.264 44.5858 235.826 44.5858C234.811 44.5858 234.053 45.3502 234.053 46.3715C234.053 47.3928 234.811 48.1635 235.826 48.1635C236.258 48.1635 236.634 48.0132 236.922 47.7563L237.004 48.0633H237.718V44.6797H237.035ZM235.901 47.2989C235.368 47.2989 234.98 46.8978 234.98 46.3715C234.98 45.8389 235.368 45.4442 235.901 45.4442C236.434 45.4442 236.822 45.8389 236.822 46.3715C236.822 46.9041 236.434 47.2989 235.901 47.2989Z" fill="white"/>
</svg>
