<svg width="343" height="256" viewBox="0 0 343 256" fill="none" xmlns="http://www.w3.org/2000/svg">
<rect width="343" height="256" fill="white"/>
<g filter="url(#filter0_d_292_5742)">
<rect width="171.084" height="151.729" transform="translate(65 86.6633)" fill="white"/>
<path d="M74.2642 104.644V105.099H75.0303V108.625H75.5152V104.644H74.2642ZM76.2457 104.644V105.099H78.2748L76.8443 108.625H77.371L78.9392 104.734V104.644H76.2457ZM79.4901 106.362H80.0767V105.728H79.4901V106.362ZM79.4901 108.625H80.0767V107.99H79.4901V108.625ZM82.359 108.696C83.2987 108.696 83.8913 107.9 83.8913 106.637C83.8913 105.362 83.3047 104.578 82.359 104.578C81.4073 104.578 80.8147 105.362 80.8147 106.637C80.8147 107.9 81.4133 108.696 82.359 108.696ZM82.359 108.23C81.7066 108.23 81.3175 107.631 81.3175 106.637C81.3175 105.644 81.7125 105.045 82.359 105.045C82.9994 105.045 83.3945 105.644 83.3945 106.637C83.3945 107.631 82.9994 108.23 82.359 108.23ZM86.0824 108.696C87.0221 108.696 87.6146 107.9 87.6146 106.637C87.6146 105.362 87.0281 104.578 86.0824 104.578C85.1307 104.578 84.5381 105.362 84.5381 106.637C84.5381 107.9 85.1366 108.696 86.0824 108.696ZM86.0824 108.23C85.4299 108.23 85.0409 107.631 85.0409 106.637C85.0409 105.644 85.4359 105.045 86.0824 105.045C86.7228 105.045 87.1178 105.644 87.1178 106.637C87.1178 107.631 86.7228 108.23 86.0824 108.23Z" fill="#292929"/>
<line x1="91.9346" y1="106.375" x2="228.104" y2="106.375" stroke="#F6F6F6" stroke-width="0.498788"/>
<path d="M74.7903 132.596V133.051H75.5564V136.576H76.0412V132.596H74.7903ZM76.7718 132.596V133.051H78.8009L77.3703 136.576H77.8971L79.4653 132.686V132.596H76.7718ZM80.0162 134.314H80.6028V133.679H80.0162V134.314ZM80.0162 136.576H80.6028V135.942H80.0162V136.576ZM82.8252 134.104L83.7709 132.715V132.596H81.4066V133.051H82.9988L82.083 134.397V134.493H82.5259C83.0467 134.493 83.4237 134.846 83.4237 135.337C83.4237 135.822 83.0706 136.181 82.5858 136.181C82.1249 136.181 81.7957 135.876 81.7658 135.415H81.281C81.3169 136.139 81.8496 136.648 82.5858 136.648C83.3459 136.648 83.9265 136.109 83.9265 135.349C83.9265 134.697 83.4776 134.194 82.8252 134.104ZM86.0824 136.648C87.0221 136.648 87.6146 135.852 87.6146 134.589C87.6146 133.314 87.0281 132.53 86.0824 132.53C85.1307 132.53 84.5381 133.314 84.5381 134.589C84.5381 135.852 85.1367 136.648 86.0824 136.648ZM86.0824 136.181C85.43 136.181 85.0409 135.582 85.0409 134.589C85.0409 133.595 85.4359 132.997 86.0824 132.997C86.7228 132.997 87.1179 133.595 87.1179 134.589C87.1179 135.582 86.7228 136.181 86.0824 136.181Z" fill="#292929"/>
<line x1="91.9346" y1="134.327" x2="228.104" y2="134.327" stroke="#F6F6F6" stroke-width="0.498788"/>
<path d="M73.8025 160.547V161.002H74.5686V164.528H75.0534V160.547H73.8025ZM78.2081 162.397C78.4475 162.229 78.6091 161.9 78.6091 161.547C78.6091 160.912 78.1003 160.481 77.3522 160.481C76.598 160.481 76.0832 160.918 76.0832 161.547C76.0832 161.894 76.2508 162.217 76.5082 162.397C76.1611 162.594 75.9396 162.965 75.9396 163.378C75.9396 164.109 76.5082 164.599 77.3522 164.599C78.1841 164.599 78.7647 164.091 78.7647 163.378C78.7647 162.953 78.5433 162.582 78.2081 162.397ZM77.3522 160.9C77.8071 160.9 78.1243 161.164 78.1243 161.547C78.1243 161.936 77.8071 162.199 77.3522 162.199C76.8853 162.199 76.5681 161.936 76.5681 161.547C76.5681 161.164 76.8853 160.9 77.3522 160.9ZM77.3522 164.162C76.8075 164.162 76.4364 163.845 76.4364 163.396C76.4364 162.929 76.8135 162.618 77.3522 162.618C77.8908 162.618 78.2679 162.929 78.2679 163.396C78.2679 163.845 77.8968 164.162 77.3522 164.162ZM79.4901 162.265H80.0767V161.631H79.4901V162.265ZM79.4901 164.528H80.0767V163.893H79.4901V164.528ZM82.359 164.599C83.2987 164.599 83.8913 163.803 83.8913 162.54C83.8913 161.266 83.3047 160.481 82.359 160.481C81.4073 160.481 80.8147 161.266 80.8147 162.54C80.8147 163.803 81.4133 164.599 82.359 164.599ZM82.359 164.133C81.7066 164.133 81.3175 163.534 81.3175 162.54C81.3175 161.547 81.7126 160.948 82.359 160.948C82.9994 160.948 83.3945 161.547 83.3945 162.54C83.3945 163.534 82.9994 164.133 82.359 164.133ZM86.0824 164.599C87.0221 164.599 87.6146 163.803 87.6146 162.54C87.6146 161.266 87.0281 160.481 86.0824 160.481C85.1307 160.481 84.5381 161.266 84.5381 162.54C84.5381 163.803 85.1367 164.599 86.0824 164.599ZM86.0824 164.133C85.43 164.133 85.0409 163.534 85.0409 162.54C85.0409 161.547 85.4359 160.948 86.0824 160.948C86.7228 160.948 87.1179 161.547 87.1179 162.54C87.1179 163.534 86.7228 164.133 86.0824 164.133Z" fill="#292929"/>
<line x1="91.9346" y1="162.278" x2="228.104" y2="162.278" stroke="#F6F6F6" stroke-width="0.498788"/>
<path d="M74.3285 188.499V188.954H75.0947V192.479H75.5795V188.499H74.3285ZM78.7341 190.348C78.9736 190.181 79.1352 189.852 79.1352 189.498C79.1352 188.864 78.6264 188.433 77.8782 188.433C77.1241 188.433 76.6093 188.87 76.6093 189.498C76.6093 189.846 76.7769 190.169 77.0343 190.348C76.6871 190.546 76.4657 190.917 76.4657 191.33C76.4657 192.06 77.0343 192.551 77.8782 192.551C78.7102 192.551 79.2908 192.042 79.2908 191.33C79.2908 190.905 79.0693 190.534 78.7341 190.348ZM77.8782 188.852C78.3331 188.852 78.6503 189.115 78.6503 189.498C78.6503 189.887 78.3331 190.151 77.8782 190.151C77.4114 190.151 77.0941 189.887 77.0941 189.498C77.0941 189.115 77.4114 188.852 77.8782 188.852ZM77.8782 192.114C77.3335 192.114 76.9624 191.797 76.9624 191.348C76.9624 190.881 77.3395 190.57 77.8782 190.57C78.4169 190.57 78.794 190.881 78.794 191.348C78.794 191.797 78.4229 192.114 77.8782 192.114ZM80.0162 190.217H80.6028V189.582H80.0162V190.217ZM80.0162 192.479H80.6028V191.845H80.0162V192.479ZM82.8252 190.007L83.7709 188.619V188.499H81.4066V188.954H82.9988L82.083 190.3V190.396H82.5259C83.0467 190.396 83.4237 190.749 83.4237 191.24C83.4237 191.725 83.0706 192.084 82.5858 192.084C82.1249 192.084 81.7957 191.779 81.7658 191.318H81.281C81.3169 192.042 81.8496 192.551 82.5858 192.551C83.3459 192.551 83.9265 192.012 83.9265 191.252C83.9265 190.6 83.4776 190.097 82.8252 190.007ZM86.0824 192.551C87.0221 192.551 87.6146 191.755 87.6146 190.492C87.6146 189.217 87.0281 188.433 86.0824 188.433C85.1307 188.433 84.5381 189.217 84.5381 190.492C84.5381 191.755 85.1367 192.551 86.0824 192.551ZM86.0824 192.084C85.43 192.084 85.0409 191.486 85.0409 190.492C85.0409 189.498 85.4359 188.9 86.0824 188.9C86.7228 188.9 87.1179 189.498 87.1179 190.492C87.1179 191.486 86.7228 192.084 86.0824 192.084Z" fill="#292929"/>
<line x1="91.9346" y1="190.23" x2="228.104" y2="190.23" stroke="#F6F6F6" stroke-width="0.498788"/>
<path d="M73.9427 216.45V216.905H74.7089V220.431H75.1937V216.45H73.9427ZM77.3667 216.384C76.5467 216.384 75.9542 216.947 75.9542 217.737C75.9542 218.473 76.5467 219.042 77.3069 219.042C77.5104 219.042 77.7019 219 77.8815 218.916C77.7438 219.18 77.5643 219.491 77.0256 220.437H77.5643L78.3663 219.06C78.6476 218.569 78.7913 218.12 78.7913 217.737C78.7913 216.947 78.1987 216.384 77.3667 216.384ZM77.3727 218.617C76.84 218.617 76.451 218.252 76.451 217.737C76.451 217.222 76.84 216.851 77.3727 216.851C77.9054 216.851 78.2945 217.228 78.2945 217.737C78.2945 218.246 77.9054 218.617 77.3727 218.617ZM79.4901 218.168H80.0767V217.534H79.4901V218.168ZM79.4901 220.431H80.0767V219.796H79.4901V220.431ZM82.359 220.502C83.2987 220.502 83.8913 219.706 83.8913 218.443C83.8913 217.169 83.3047 216.384 82.359 216.384C81.4073 216.384 80.8147 217.169 80.8147 218.443C80.8147 219.706 81.4133 220.502 82.359 220.502ZM82.359 220.036C81.7066 220.036 81.3175 219.437 81.3175 218.443C81.3175 217.45 81.7126 216.851 82.359 216.851C82.9994 216.851 83.3945 217.45 83.3945 218.443C83.3945 219.437 82.9994 220.036 82.359 220.036ZM86.0824 220.502C87.0221 220.502 87.6146 219.706 87.6146 218.443C87.6146 217.169 87.0281 216.384 86.0824 216.384C85.1307 216.384 84.5381 217.169 84.5381 218.443C84.5381 219.706 85.1367 220.502 86.0824 220.502ZM86.0824 220.036C85.43 220.036 85.0409 219.437 85.0409 218.443C85.0409 217.45 85.4359 216.851 86.0824 216.851C86.7228 216.851 87.1179 217.45 87.1179 218.443C87.1179 219.437 86.7228 220.036 86.0824 220.036Z" fill="#292929"/>
<line x1="91.9346" y1="218.181" x2="228.104" y2="218.181" stroke="#F6F6F6" stroke-width="0.498788"/>
</g>
<rect x="102.907" y="106.615" width="3.99031" height="55.8643" fill="#8BE8CB"/>
<rect x="107.147" y="106.864" width="91.2782" height="55.3655" fill="white"/>
<path d="M116.261 119.758V116.406H115.357V120.595H117.871V119.758H116.261ZM121.502 118.973C121.502 118.04 120.82 117.274 119.826 117.274C118.869 117.274 118.15 118.01 118.15 118.979C118.15 119.949 118.875 120.691 119.826 120.691C120.58 120.691 121.197 120.242 121.43 119.536H120.515C120.383 119.769 120.132 119.913 119.826 119.913C119.401 119.913 119.114 119.668 119.036 119.225H121.484C121.496 119.141 121.502 119.057 121.502 118.973ZM119.826 118.022C120.221 118.022 120.503 118.237 120.628 118.632H119.06C119.162 118.249 119.437 118.022 119.826 118.022ZM123.627 120.691C124.471 120.691 125.135 120.141 125.285 119.327H124.405C124.255 119.674 123.98 119.865 123.627 119.865C123.16 119.865 122.795 119.476 122.795 118.979C122.795 118.477 123.154 118.094 123.627 118.094C123.974 118.094 124.267 118.285 124.405 118.602H125.273C125.117 117.806 124.471 117.274 123.633 117.274C122.651 117.274 121.909 118.004 121.909 118.973C121.909 119.943 122.651 120.691 123.627 120.691ZM127.428 119.817C127.105 119.817 126.925 119.638 126.925 119.327V118.07H127.805V117.363H126.913V116.525H126.745L125.471 117.878V118.07H126.051V119.446C126.051 120.159 126.488 120.595 127.2 120.595H127.823V119.817H127.428ZM129.892 120.691C130.808 120.691 131.412 120.105 131.412 119.231V117.363H130.538V119.135C130.538 119.59 130.299 119.865 129.892 119.865C129.491 119.865 129.246 119.596 129.246 119.135V117.363H128.372V119.231C128.372 120.105 128.982 120.691 129.892 120.691ZM133.859 117.345C133.44 117.345 133.153 117.477 132.919 117.764L132.764 117.363H132.207V120.595H133.081V118.92C133.081 118.393 133.273 118.171 133.763 118.171H134.147V117.345H133.859ZM137.711 118.973C137.711 118.04 137.029 117.274 136.035 117.274C135.077 117.274 134.359 118.01 134.359 118.979C134.359 119.949 135.083 120.691 136.035 120.691C136.789 120.691 137.406 120.242 137.639 119.536H136.723C136.592 119.769 136.34 119.913 136.035 119.913C135.61 119.913 135.323 119.668 135.245 119.225H137.693C137.705 119.141 137.711 119.057 137.711 118.973ZM136.035 118.022C136.43 118.022 136.711 118.237 136.837 118.632H135.269C135.371 118.249 135.646 118.022 136.035 118.022Z" fill="#292929"/>
<path d="M115.028 126.61V127.065H115.794V130.591H116.279V126.61H115.028ZM117.009 126.61V127.065H119.038L117.608 130.591H118.135L119.703 126.7V126.61H117.009ZM120.254 128.328H120.84V127.694H120.254V128.328ZM120.254 130.591H120.84V129.956H120.254V130.591ZM123.123 130.662C124.062 130.662 124.655 129.866 124.655 128.603C124.655 127.329 124.068 126.544 123.123 126.544C122.171 126.544 121.578 127.329 121.578 128.603C121.578 129.866 122.177 130.662 123.123 130.662ZM123.123 130.196C122.47 130.196 122.081 129.597 122.081 128.603C122.081 127.61 122.476 127.011 123.123 127.011C123.763 127.011 124.158 127.61 124.158 128.603C124.158 129.597 123.763 130.196 123.123 130.196ZM126.846 130.662C127.786 130.662 128.378 129.866 128.378 128.603C128.378 127.329 127.792 126.544 126.846 126.544C125.894 126.544 125.302 127.329 125.302 128.603C125.302 129.866 125.9 130.662 126.846 130.662ZM126.846 130.196C126.194 130.196 125.804 129.597 125.804 128.603C125.804 127.61 126.199 127.011 126.846 127.011C127.486 127.011 127.881 127.61 127.881 128.603C127.881 129.597 127.486 130.196 126.846 130.196ZM130.681 129.166H132.585V128.675H130.681V129.166ZM134.714 126.61V127.065H135.48V130.591H135.965V126.61H134.714ZM139.12 128.46C139.359 128.292 139.521 127.963 139.521 127.61C139.521 126.975 139.012 126.544 138.264 126.544C137.51 126.544 136.995 126.981 136.995 127.61C136.995 127.957 137.163 128.28 137.42 128.46C137.073 128.657 136.851 129.028 136.851 129.441C136.851 130.172 137.42 130.662 138.264 130.662C139.096 130.662 139.677 130.154 139.677 129.441C139.677 129.016 139.455 128.645 139.12 128.46ZM138.264 126.963C138.719 126.963 139.036 127.227 139.036 127.61C139.036 127.999 138.719 128.262 138.264 128.262C137.797 128.262 137.48 127.999 137.48 127.61C137.48 127.227 137.797 126.963 138.264 126.963ZM138.264 130.226C137.719 130.226 137.348 129.908 137.348 129.459C137.348 128.993 137.725 128.681 138.264 128.681C138.803 128.681 139.18 128.993 139.18 129.459C139.18 129.908 138.809 130.226 138.264 130.226ZM140.402 128.328H140.989V127.694H140.402V128.328ZM140.402 130.591H140.989V129.956H140.402V130.591ZM143.271 130.662C144.211 130.662 144.803 129.866 144.803 128.603C144.803 127.329 144.217 126.544 143.271 126.544C142.319 126.544 141.727 127.329 141.727 128.603C141.727 129.866 142.325 130.662 143.271 130.662ZM143.271 130.196C142.618 130.196 142.229 129.597 142.229 128.603C142.229 127.61 142.624 127.011 143.271 127.011C143.911 127.011 144.306 127.61 144.306 128.603C144.306 129.597 143.911 130.196 143.271 130.196ZM146.994 130.662C147.934 130.662 148.527 129.866 148.527 128.603C148.527 127.329 147.94 126.544 146.994 126.544C146.043 126.544 145.45 127.329 145.45 128.603C145.45 129.866 146.049 130.662 146.994 130.662ZM146.994 130.196C146.342 130.196 145.953 129.597 145.953 128.603C145.953 127.61 146.348 127.011 146.994 127.011C147.635 127.011 148.03 127.61 148.03 128.603C148.03 129.597 147.635 130.196 146.994 130.196Z" fill="#292929"/>
<rect x="107.147" y="106.864" width="91.2782" height="55.3655" stroke="#8BE8CB" stroke-width="0.498788"/>
<rect x="115.876" y="162.479" width="3.99031" height="55.8643" fill="#FE5F55"/>
<rect x="120.116" y="162.728" width="91.2782" height="55.3655" fill="white"/>
<path d="M130.247 176.555C131.283 176.555 132.097 175.861 132.288 174.826H131.372C131.223 175.352 130.798 175.688 130.247 175.688C129.535 175.688 129.002 175.125 129.002 174.371C129.002 173.617 129.535 173.048 130.247 173.048C130.774 173.048 131.193 173.359 131.366 173.85H132.27C132.079 172.856 131.265 172.18 130.247 172.18C129.014 172.18 128.08 173.126 128.08 174.371C128.08 175.61 129.014 176.555 130.247 176.555ZM134.416 176.555C135.415 176.555 136.164 175.819 136.164 174.844C136.164 173.868 135.415 173.138 134.416 173.138C133.416 173.138 132.668 173.868 132.668 174.844C132.668 175.819 133.416 176.555 134.416 176.555ZM134.416 175.729C133.913 175.729 133.554 175.37 133.554 174.844C133.554 174.323 133.913 173.958 134.416 173.958C134.919 173.958 135.278 174.323 135.278 174.844C135.278 175.37 134.919 175.729 134.416 175.729ZM139.164 172.066V173.407C138.913 173.234 138.614 173.138 138.278 173.138C137.297 173.138 136.579 173.868 136.579 174.85C136.579 175.825 137.297 176.561 138.278 176.561C138.673 176.561 139.021 176.424 139.29 176.196L139.392 176.466H140.038V172.066H139.164ZM138.35 175.735C137.841 175.735 137.47 175.352 137.47 174.85C137.47 174.341 137.841 173.964 138.35 173.964C138.859 173.964 139.23 174.341 139.23 174.85C139.23 175.352 138.859 175.735 138.35 175.735ZM144.016 174.838C144.016 173.904 143.334 173.138 142.34 173.138C141.383 173.138 140.664 173.874 140.664 174.844C140.664 175.813 141.389 176.555 142.34 176.555C143.094 176.555 143.711 176.107 143.944 175.4H143.029C142.897 175.634 142.645 175.777 142.34 175.777C141.915 175.777 141.628 175.532 141.55 175.089H143.998C144.01 175.005 144.016 174.921 144.016 174.838ZM142.34 173.886C142.735 173.886 143.017 174.101 143.142 174.496H141.574C141.676 174.113 141.951 173.886 142.34 173.886ZM145.555 175.622V172.27H144.651V176.46H147.165V175.622H145.555ZM150.294 173.228L150.204 173.533C149.923 173.287 149.558 173.138 149.139 173.138C148.169 173.138 147.445 173.868 147.445 174.844C147.445 175.819 148.169 176.555 149.139 176.555C149.552 176.555 149.911 176.412 150.186 176.166L150.264 176.46H150.946V173.228H150.294ZM149.21 175.729C148.702 175.729 148.331 175.346 148.331 174.844C148.331 174.335 148.702 173.958 149.21 173.958C149.719 173.958 150.09 174.335 150.09 174.844C150.09 175.352 149.719 175.729 149.21 175.729ZM153.552 173.138C153.217 173.138 152.912 173.234 152.667 173.407V172.066H151.793V176.466H152.433L152.541 176.19C152.81 176.424 153.157 176.555 153.552 176.555C154.534 176.555 155.252 175.825 155.252 174.85C155.252 173.868 154.534 173.138 153.552 173.138ZM153.481 175.729C152.972 175.729 152.601 175.346 152.601 174.844C152.601 174.341 152.972 173.958 153.481 173.958C153.989 173.958 154.36 174.341 154.36 174.844C154.36 175.346 153.989 175.729 153.481 175.729Z" fill="#292929"/>
<path d="M127.997 182.474V182.929H128.763V186.455H129.247V182.474H127.997ZM132.402 184.324C132.642 184.156 132.803 183.827 132.803 183.474C132.803 182.84 132.294 182.409 131.546 182.409C130.792 182.409 130.277 182.846 130.277 183.474C130.277 183.821 130.445 184.144 130.702 184.324C130.355 184.522 130.134 184.893 130.134 185.306C130.134 186.036 130.702 186.527 131.546 186.527C132.378 186.527 132.959 186.018 132.959 185.306C132.959 184.881 132.737 184.51 132.402 184.324ZM131.546 182.828C132.001 182.828 132.318 183.091 132.318 183.474C132.318 183.863 132.001 184.126 131.546 184.126C131.079 184.126 130.762 183.863 130.762 183.474C130.762 183.091 131.079 182.828 131.546 182.828ZM131.546 186.09C131.002 186.09 130.63 185.772 130.63 185.324C130.63 184.857 131.008 184.545 131.546 184.545C132.085 184.545 132.462 184.857 132.462 185.324C132.462 185.772 132.091 186.09 131.546 186.09ZM133.684 184.192H134.271V183.558H133.684V184.192ZM133.684 186.455H134.271V185.82H133.684V186.455ZM136.553 186.527C137.493 186.527 138.085 185.731 138.085 184.468C138.085 183.193 137.499 182.409 136.553 182.409C135.601 182.409 135.009 183.193 135.009 184.468C135.009 185.731 135.607 186.527 136.553 186.527ZM136.553 186.06C135.901 186.06 135.512 185.461 135.512 184.468C135.512 183.474 135.907 182.876 136.553 182.876C137.194 182.876 137.589 183.474 137.589 184.468C137.589 185.461 137.194 186.06 136.553 186.06ZM140.276 186.527C141.216 186.527 141.809 185.731 141.809 184.468C141.809 183.193 141.222 182.409 140.276 182.409C139.325 182.409 138.732 183.193 138.732 184.468C138.732 185.731 139.331 186.527 140.276 186.527ZM140.276 186.06C139.624 186.06 139.235 185.461 139.235 184.468C139.235 183.474 139.63 182.876 140.276 182.876C140.917 182.876 141.312 183.474 141.312 184.468C141.312 185.461 140.917 186.06 140.276 186.06ZM144.112 185.03H146.015V184.539H144.112V185.03ZM148.145 182.474V182.929H148.911V186.455H149.396V182.474H148.145ZM151.569 182.409C150.749 182.409 150.156 182.971 150.156 183.761C150.156 184.498 150.749 185.066 151.509 185.066C151.713 185.066 151.904 185.024 152.084 184.941C151.946 185.204 151.766 185.515 151.228 186.461H151.766L152.568 185.084C152.85 184.593 152.993 184.144 152.993 183.761C152.993 182.971 152.401 182.409 151.569 182.409ZM151.575 184.641C151.042 184.641 150.653 184.276 150.653 183.761C150.653 183.247 151.042 182.876 151.575 182.876C152.108 182.876 152.497 183.253 152.497 183.761C152.497 184.27 152.108 184.641 151.575 184.641ZM153.692 184.192H154.279V183.558H153.692V184.192ZM153.692 186.455H154.279V185.82H153.692V186.455ZM156.561 186.527C157.501 186.527 158.093 185.731 158.093 184.468C158.093 183.193 157.507 182.409 156.561 182.409C155.609 182.409 155.017 183.193 155.017 184.468C155.017 185.731 155.615 186.527 156.561 186.527ZM156.561 186.06C155.909 186.06 155.52 185.461 155.52 184.468C155.52 183.474 155.915 182.876 156.561 182.876C157.202 182.876 157.597 183.474 157.597 184.468C157.597 185.461 157.202 186.06 156.561 186.06ZM160.284 186.527C161.224 186.527 161.817 185.731 161.817 184.468C161.817 183.193 161.23 182.409 160.284 182.409C159.333 182.409 158.74 183.193 158.74 184.468C158.74 185.731 159.339 186.527 160.284 186.527ZM160.284 186.06C159.632 186.06 159.243 185.461 159.243 184.468C159.243 183.474 159.638 182.876 160.284 182.876C160.925 182.876 161.32 183.474 161.32 184.468C161.32 185.461 160.925 186.06 160.284 186.06Z" fill="#292929"/>
<rect x="120.116" y="162.728" width="91.2782" height="55.3655" stroke="#FE5F55" stroke-width="0.498788"/>
<g filter="url(#filter1_d_292_5742)">
<rect width="171.084" height="79.9031" transform="translate(106.915 16)" fill="#FFCB47"/>
<path d="M120.893 30.5633C121.48 30.1563 121.839 29.486 121.839 28.7677C121.839 27.5347 120.761 26.6129 119.313 26.6129H115.853V34.9926H119.409C120.869 34.9926 122.054 33.9152 122.054 32.5745C122.054 31.6766 121.623 30.9584 120.893 30.5633ZM120.079 29.043C120.079 29.5698 119.708 29.9409 119.145 29.9409H117.625V28.1572H119.145C119.708 28.1572 120.079 28.5163 120.079 29.043ZM119.241 33.3286H117.625V31.4492H119.241C119.84 31.4492 120.235 31.8442 120.235 32.3829C120.235 32.9336 119.84 33.3286 119.241 33.3286ZM128.681 28.5163L128.502 29.1268C127.939 28.636 127.209 28.3367 126.371 28.3367C124.432 28.3367 122.983 29.7972 122.983 31.7485C122.983 33.6997 124.432 35.1721 126.371 35.1721C127.197 35.1721 127.915 34.8848 128.466 34.394L128.622 34.9806H129.986V28.5163H128.681ZM126.515 33.5202C125.497 33.5202 124.755 32.754 124.755 31.7485C124.755 30.7309 125.497 29.9768 126.515 29.9768C127.532 29.9768 128.274 30.7309 128.274 31.7485C128.274 32.766 127.532 33.5202 126.515 33.5202ZM133.966 35.1721C135.606 35.1721 136.683 34.3102 136.683 32.9934C136.683 31.4133 135.33 31.1978 134.277 31.0063C133.607 30.8866 133.056 30.7788 133.056 30.3479C133.056 29.9768 133.379 29.7373 133.918 29.7373C134.528 29.7373 134.887 29.9887 134.899 30.5035H136.563C136.551 29.2106 135.522 28.3367 133.966 28.3367C132.409 28.3367 131.368 29.1867 131.368 30.4077C131.368 31.928 132.685 32.2034 133.714 32.3829C134.397 32.4907 134.959 32.6223 134.959 33.0653C134.959 33.4962 134.516 33.7237 134.038 33.7237C133.415 33.7237 132.972 33.4364 132.96 32.8618H131.26C131.26 34.2384 132.35 35.1721 133.966 35.1721ZM137.969 27.6544H139.704V26.0383H137.969V27.6544ZM137.969 34.9806H139.716V28.5163H137.969V34.9806ZM144.399 35.1721C146.087 35.1721 147.415 34.0708 147.715 32.4428H145.955C145.656 33.1371 145.105 33.5202 144.399 33.5202C143.465 33.5202 142.735 32.742 142.735 31.7485C142.735 30.7429 143.453 29.9768 144.399 29.9768C145.093 29.9768 145.68 30.3598 145.955 30.9943H147.691C147.379 29.4022 146.087 28.3367 144.411 28.3367C142.447 28.3367 140.963 29.7972 140.963 31.7365C140.963 33.6758 142.447 35.1721 144.399 35.1721ZM151.162 35.1721C152.802 35.1721 153.88 34.3102 153.88 32.9934C153.88 31.4133 152.527 31.1978 151.473 31.0063C150.803 30.8866 150.252 30.7788 150.252 30.3479C150.252 29.9768 150.576 29.7373 151.114 29.7373C151.725 29.7373 152.084 29.9887 152.096 30.5035H153.76C153.748 29.2106 152.718 28.3367 151.162 28.3367C149.606 28.3367 148.565 29.1867 148.565 30.4077C148.565 31.928 149.881 32.2034 150.911 32.3829C151.593 32.4907 152.156 32.6223 152.156 33.0653C152.156 33.4962 151.713 33.7237 151.234 33.7237C150.612 33.7237 150.169 33.4364 150.157 32.8618H148.457C148.457 34.2384 149.546 35.1721 151.162 35.1721Z" fill="#292929"/>
<path d="M119.556 51.9709H120.314L117.968 46.3845H117.314L115.031 51.9709H115.774L116.316 50.6382H119.006L119.556 51.9709ZM117.649 47.3501L118.742 49.9917H116.58L117.649 47.3501ZM123.429 47.5736C122.735 47.5736 122.144 47.8529 121.745 48.3238L121.609 47.6614H121.139V53.5112H121.817V51.3963C122.216 51.8193 122.783 52.0667 123.429 52.0667C124.714 52.0667 125.64 51.101 125.64 49.8162C125.64 48.5313 124.714 47.5736 123.429 47.5736ZM123.381 51.4123C122.463 51.4123 121.793 50.7259 121.793 49.8162C121.793 48.9143 122.463 48.228 123.381 48.228C124.291 48.228 124.961 48.9064 124.961 49.8162C124.961 50.7339 124.291 51.4123 123.381 51.4123ZM128.643 47.6454C128.021 47.6454 127.574 47.8769 127.263 48.3238L127.159 47.6614H126.672V51.9709H127.35V49.6326C127.35 48.7946 127.797 48.2839 128.587 48.2839H129.026V47.6454H128.643ZM129.727 46.9192H130.461V46.1451H129.727V46.9192ZM129.75 51.9709H130.429V47.6614H129.75V51.9709ZM131.792 51.9709H132.471V46.1291H131.792V51.9709ZM135.444 46.6638V47.2703H136.466V51.9709H137.112V46.6638H135.444ZM139.93 52.0667C140.951 52.0667 141.638 51.5479 141.638 50.7419C141.638 49.6885 140.76 49.5448 140.017 49.4251C139.443 49.3373 138.948 49.2495 138.948 48.7946C138.948 48.4195 139.315 48.1801 139.898 48.1801C140.504 48.1801 140.871 48.4355 140.895 48.9064H141.534C141.51 48.0923 140.887 47.5736 139.914 47.5736C138.94 47.5736 138.286 48.0764 138.286 48.8186C138.286 49.7922 139.116 49.9438 139.85 50.0715C140.432 50.1673 140.967 50.2631 140.967 50.7738C140.967 51.1888 140.544 51.4442 139.954 51.4442C139.347 51.4442 138.908 51.1649 138.876 50.6541H138.206C138.246 51.524 138.908 52.0667 139.93 52.0667ZM144.405 51.3484C143.815 51.3484 143.496 51.0292 143.496 50.4466V48.2759H144.852V47.6614H143.496V46.7516H143.392L142.059 48.1562V48.2759H142.817V50.4706C142.817 51.4043 143.392 51.9709 144.318 51.9709H144.876V51.3484H144.405ZM145.686 53.0323C146.181 52.8967 146.468 52.5535 146.468 51.9151V51.133H145.646V51.9709H146.101C146.101 52.3221 145.989 52.5535 145.686 52.6572V53.0323ZM149.317 46.6638V47.2703H150.338V51.9709H150.985V46.6638H149.317ZM151.959 46.6638V47.2703H154.664L152.757 51.9709H153.459L155.55 46.7835V46.6638H151.959ZM160.791 47.5736C160.097 47.5736 159.507 47.8529 159.107 48.3238L158.972 47.6614H158.501V53.5112H159.179V51.3963C159.578 51.8193 160.145 52.0667 160.791 52.0667C162.076 52.0667 163.002 51.101 163.002 49.8162C163.002 48.5313 162.076 47.5736 160.791 47.5736ZM160.744 51.4123C159.826 51.4123 159.155 50.7259 159.155 49.8162C159.155 48.9143 159.826 48.228 160.744 48.228C161.653 48.228 162.324 48.9064 162.324 49.8162C162.324 50.7339 161.653 51.4123 160.744 51.4123ZM168.799 47.5736C168.208 47.5736 167.658 47.8848 167.338 48.3876C167.099 47.8848 166.628 47.5736 166.014 47.5736C165.471 47.5736 164.968 47.829 164.633 48.2599L164.521 47.6614H164.034V51.9709H164.713V49.5847C164.713 48.7946 165.231 48.1881 165.862 48.1881C166.484 48.1881 166.844 48.651 166.844 49.4331V51.9709H167.514V49.5847C167.514 48.7946 168.033 48.1881 168.663 48.1881C169.278 48.1881 169.637 48.651 169.637 49.4331V51.9709H170.315V49.2176C170.315 48.252 169.709 47.5736 168.799 47.5736ZM173.571 50.0715H176.108V49.4171H173.571V50.0715ZM178.948 46.6638V47.2703H179.969V51.9709H180.616V46.6638H178.948ZM183.513 46.576C182.42 46.576 181.63 47.3262 181.63 48.3796C181.63 49.3613 182.42 50.1194 183.433 50.1194C183.705 50.1194 183.96 50.0636 184.2 49.9518C184.016 50.303 183.777 50.718 183.058 51.9789H183.777L184.846 50.1434C185.221 49.4889 185.413 48.8904 185.413 48.3796C185.413 47.3262 184.622 46.576 183.513 46.576ZM183.521 49.5528C182.811 49.5528 182.292 49.066 182.292 48.3796C182.292 47.6933 182.811 47.1985 183.521 47.1985C184.231 47.1985 184.75 47.7013 184.75 48.3796C184.75 49.058 184.231 49.5528 183.521 49.5528ZM190.851 47.5736C190.157 47.5736 189.566 47.8529 189.167 48.3238L189.032 47.6614H188.561V53.5112H189.239V51.3963C189.638 51.8193 190.205 52.0667 190.851 52.0667C192.136 52.0667 193.062 51.101 193.062 49.8162C193.062 48.5313 192.136 47.5736 190.851 47.5736ZM190.803 51.4123C189.886 51.4123 189.215 50.7259 189.215 49.8162C189.215 48.9143 189.886 48.228 190.803 48.228C191.713 48.228 192.383 48.9064 192.383 49.8162C192.383 50.7339 191.713 51.4123 190.803 51.4123ZM198.859 47.5736C198.268 47.5736 197.717 47.8848 197.398 48.3876C197.159 47.8848 196.688 47.5736 196.073 47.5736C195.531 47.5736 195.028 47.829 194.693 48.2599L194.581 47.6614H194.094V51.9709H194.773V49.5847C194.773 48.7946 195.291 48.1881 195.922 48.1881C196.544 48.1881 196.903 48.651 196.903 49.4331V51.9709H197.574V49.5847C197.574 48.7946 198.092 48.1881 198.723 48.1881C199.337 48.1881 199.697 48.651 199.697 49.4331V51.9709H200.375V49.2176C200.375 48.252 199.768 47.5736 198.859 47.5736Z" fill="#292929"/>
<path d="M264.618 39.9758L262.149 37.5068L262.854 36.8015L266.028 39.9758L262.854 43.15L262.149 42.4448L264.618 39.9758Z" fill="#292929"/>
<rect width="155.123" height="19.9806" transform="translate(114.896 67.9418)" fill="white"/>
<path d="M169.69 79.9321H171.038L169.801 77.8253C170.424 77.522 170.823 76.9314 170.823 76.1972C170.823 75.1198 169.985 74.3457 168.868 74.3457H166.617V79.9321H167.822V78.0328H168.596L169.69 79.9321ZM167.822 75.463H168.788C169.299 75.463 169.594 75.7742 169.594 76.1892C169.594 76.6122 169.299 76.9155 168.788 76.9155H167.822V75.463ZM175.894 77.7694C175.894 76.5244 174.984 75.5029 173.659 75.5029C172.383 75.5029 171.425 76.4845 171.425 77.7774C171.425 79.0702 172.39 80.0598 173.659 80.0598C174.665 80.0598 175.487 79.4613 175.798 78.5196H174.577C174.402 78.8308 174.066 79.0224 173.659 79.0224C173.093 79.0224 172.71 78.6951 172.606 78.1046H175.87C175.886 77.9929 175.894 77.8811 175.894 77.7694ZM173.659 76.5005C174.186 76.5005 174.561 76.7878 174.729 77.3145H172.638C172.774 76.8037 173.141 76.5005 173.659 76.5005ZM178.248 80.0598C179.341 80.0598 180.059 79.4852 180.059 78.6074C180.059 77.5539 179.157 77.4103 178.455 77.2826C178.008 77.2028 177.641 77.1309 177.641 76.8436C177.641 76.5962 177.857 76.4366 178.216 76.4366C178.623 76.4366 178.862 76.6042 178.87 76.9474H179.979C179.972 76.0855 179.285 75.5029 178.248 75.5029C177.21 75.5029 176.516 76.0695 176.516 76.8836C176.516 77.8971 177.394 78.0806 178.08 78.2004C178.535 78.2722 178.91 78.36 178.91 78.6552C178.91 78.9425 178.615 79.0942 178.296 79.0942C177.881 79.0942 177.585 78.9026 177.577 78.5196H176.444C176.444 79.4373 177.17 80.0598 178.248 80.0598ZM185.098 77.7694C185.098 76.5244 184.188 75.5029 182.864 75.5029C181.587 75.5029 180.629 76.4845 180.629 77.7774C180.629 79.0702 181.595 80.0598 182.864 80.0598C183.869 80.0598 184.691 79.4613 185.002 78.5196H183.781C183.606 78.8308 183.271 79.0224 182.864 79.0224C182.297 79.0224 181.914 78.6951 181.81 78.1046H185.074C185.09 77.9929 185.098 77.8811 185.098 77.7694ZM182.864 76.5005C183.39 76.5005 183.765 76.7878 183.933 77.3145H181.842C181.978 76.8037 182.345 76.5005 182.864 76.5005ZM188.13 75.5987C187.572 75.5987 187.189 75.7742 186.877 76.1573L186.67 75.6226H185.928V79.9321H187.093V77.6976C187.093 76.9953 187.348 76.7 188.003 76.7H188.513V75.5987H188.13ZM192.003 75.6226L190.965 78.5116L189.912 75.6226H188.667L190.422 79.9321H191.5L193.208 75.6226H192.003ZM197.864 77.7694C197.864 76.5244 196.954 75.5029 195.629 75.5029C194.353 75.5029 193.395 76.4845 193.395 77.7774C193.395 79.0702 194.361 80.0598 195.629 80.0598C196.635 80.0598 197.457 79.4613 197.768 78.5196H196.547C196.372 78.8308 196.036 79.0224 195.629 79.0224C195.063 79.0224 194.68 78.6951 194.576 78.1046H197.84C197.856 77.9929 197.864 77.8811 197.864 77.7694ZM195.629 76.5005C196.156 76.5005 196.531 76.7878 196.699 77.3145H194.608C194.744 76.8037 195.111 76.5005 195.629 76.5005ZM202.534 80.0439C203.691 80.0439 204.649 79.4613 204.649 78.2562C204.649 77.0033 203.58 76.7399 202.734 76.5244C202.135 76.3808 201.656 76.2611 201.656 75.87C201.656 75.5029 202.047 75.3353 202.438 75.3353C202.893 75.3353 203.292 75.5588 203.292 76.0456H204.481C204.481 74.9283 203.755 74.242 202.47 74.242C201.233 74.242 200.443 74.8485 200.443 75.9179C200.443 77.123 201.465 77.3704 202.311 77.5779C202.917 77.7135 203.428 77.8332 203.428 78.2722C203.428 78.6872 202.981 78.9266 202.526 78.9266C202.031 78.9266 201.585 78.6632 201.585 78.1285H200.363C200.363 79.3256 201.249 80.0439 202.534 80.0439ZM209.726 77.7694C209.726 76.5244 208.816 75.5029 207.491 75.5029C206.214 75.5029 205.257 76.4845 205.257 77.7774C205.257 79.0702 206.222 80.0598 207.491 80.0598C208.497 80.0598 209.319 79.4613 209.63 78.5196H208.409C208.233 78.8308 207.898 79.0224 207.491 79.0224C206.925 79.0224 206.542 78.6951 206.438 78.1046H209.702C209.718 77.9929 209.726 77.8811 209.726 77.7694ZM207.491 76.5005C208.018 76.5005 208.393 76.7878 208.561 77.3145H206.47C206.605 76.8037 206.973 76.5005 207.491 76.5005ZM214.067 75.6226L213.947 76.0296C213.572 75.7024 213.085 75.5029 212.526 75.5029C211.234 75.5029 210.268 76.4765 210.268 77.7774C210.268 79.0782 211.234 80.0598 212.526 80.0598C213.077 80.0598 213.556 79.8683 213.923 79.5411L214.027 79.9321H214.937V75.6226H214.067ZM212.622 78.9585C211.944 78.9585 211.449 78.4478 211.449 77.7774C211.449 77.099 211.944 76.5962 212.622 76.5962C213.301 76.5962 213.795 77.099 213.795 77.7774C213.795 78.4557 213.301 78.9585 212.622 78.9585ZM218.172 78.8947C217.741 78.8947 217.502 78.6552 217.502 78.2403V76.5643H218.675V75.6226H217.486V74.5053H217.262L215.563 76.3089V76.5643H216.337V78.3999C216.337 79.3496 216.919 79.9321 217.869 79.9321H218.699V78.8947H218.172Z" fill="#FFCB47"/>
</g>
<defs>
<filter id="filter0_d_292_5742" x="53" y="75.6633" width="195.084" height="175.729" filterUnits="userSpaceOnUse" color-interpolation-filters="sRGB">
<feFlood flood-opacity="0" result="BackgroundImageFix"/>
<feColorMatrix in="SourceAlpha" type="matrix" values="0 0 0 0 0 0 0 0 0 0 0 0 0 0 0 0 0 0 127 0" result="hardAlpha"/>
<feOffset dy="1"/>
<feGaussianBlur stdDeviation="6"/>
<feComposite in2="hardAlpha" operator="out"/>
<feColorMatrix type="matrix" values="0 0 0 0 0.07 0 0 0 0 0.07 0 0 0 0 0.07 0 0 0 0.05 0"/>
<feBlend mode="normal" in2="BackgroundImageFix" result="effect1_dropShadow_292_5742"/>
<feBlend mode="normal" in="SourceGraphic" in2="effect1_dropShadow_292_5742" result="shape"/>
</filter>
<filter id="filter1_d_292_5742" x="94.915" y="5" width="195.084" height="103.903" filterUnits="userSpaceOnUse" color-interpolation-filters="sRGB">
<feFlood flood-opacity="0" result="BackgroundImageFix"/>
<feColorMatrix in="SourceAlpha" type="matrix" values="0 0 0 0 0 0 0 0 0 0 0 0 0 0 0 0 0 0 127 0" result="hardAlpha"/>
<feOffset dy="1"/>
<feGaussianBlur stdDeviation="6"/>
<feComposite in2="hardAlpha" operator="out"/>
<feColorMatrix type="matrix" values="0 0 0 0 0.07 0 0 0 0 0.07 0 0 0 0 0.07 0 0 0 0.05 0"/>
<feBlend mode="normal" in2="BackgroundImageFix" result="effect1_dropShadow_292_5742"/>
<feBlend mode="normal" in="SourceGraphic" in2="effect1_dropShadow_292_5742" result="shape"/>
</filter>
</defs>
</svg>
