<svg width="126" height="16" viewBox="0 0 126 16" fill="none" xmlns="http://www.w3.org/2000/svg">
<path d="M8.16194 16C11.2713 16 13.4521 14.8772 14.942 13.085L11.9838 10.6019C11.2497 11.6815 9.95412 12.4372 8.2915 12.4372C5.65722 12.4372 3.97301 10.7314 3.97301 7.96761C3.97301 5.22537 5.65722 3.58435 8.2915 3.58435C9.93252 3.58435 11.2497 4.36167 11.9838 5.44129L14.942 2.97976C13.4521 1.16599 11.0769 0.0215922 8.16194 0.0215922C3.21727 0.0215922 0 3.02294 0 7.96761C0 12.9339 3.21727 16 8.16194 16Z" fill="#292929"/>
<path d="M16.8385 15.6761H20.7035V0.323886H16.8385V15.6761Z" fill="#292929"/>
<path d="M34.0056 0.323886V8.78812L25.5198 0.302294H23.598V15.6761H27.3551V7.21188L35.8194 15.7193H37.7627V0.323886H34.0056Z" fill="#292929"/>
<path d="M50.8495 0.323886V8.78812L42.3637 0.302294H40.4419V15.6761H44.199V7.21188L52.6633 15.7193H54.6066V0.323886H50.8495Z" fill="#292929"/>
<path d="M68.5571 15.6761H72.7028L65.6421 0.302294H63.0942L56.0335 15.6761H60.1792L61.302 13.1714H67.4343L68.5571 15.6761ZM63.3317 8.05398L64.3682 5.05263L65.4262 8.05398L66.2899 10.1269H62.468L63.3317 8.05398Z" fill="#292929"/>
<path d="M88.5093 0.302294L82.3338 8.20513L76.1368 0.302294H74.1719V15.6761H77.8642V8.35627L81.6645 13.1282H82.9816L86.7819 8.31309V15.6761H90.4742V0.302294H88.5093Z" fill="#292929"/>
<path d="M101.026 16C106.036 16 109.361 12.6964 109.361 8.01079C109.361 3.23887 105.949 0 101.026 0C96.06 0 92.7132 3.30364 92.7132 8.01079C92.7132 12.7611 96.1464 16 101.026 16ZM101.026 12.4588C98.392 12.4588 96.6862 10.6451 96.6862 8.01079C96.6862 5.31174 98.4568 3.54116 101.026 3.54116C103.682 3.54116 105.388 5.35492 105.388 8.01079C105.388 10.6883 103.639 12.4588 101.026 12.4588Z" fill="#292929"/>
<path d="M122 0.323886V8.78812L113.514 0.302294H111.592V15.6761H115.349V7.21188L123.813 15.7193H125.757V0.323886H122Z" fill="#292929"/>
</svg>
