<svg width="104" height="16" viewBox="0 0 104 16" fill="none" xmlns="http://www.w3.org/2000/svg">
<path d="M8.16194 16C11.2713 16 13.4521 14.8772 14.942 13.085L11.9838 10.6019C11.2497 11.6815 9.95412 12.4372 8.2915 12.4372C5.65722 12.4372 3.97301 10.7314 3.97301 7.96761C3.97301 5.22537 5.65722 3.58435 8.2915 3.58435C9.93252 3.58435 11.2497 4.36167 11.9838 5.44129L14.942 2.97976C13.4521 1.16599 11.0769 0.0215922 8.16194 0.0215922C3.21727 0.0215922 0 3.02294 0 7.96761C0 12.9339 3.21727 16 8.16194 16Z" fill="#292929"/>
<path d="M24.2714 16C29.2808 16 32.606 12.6964 32.606 8.01079C32.606 3.23887 29.1944 0 24.2714 0C19.3051 0 15.9583 3.30364 15.9583 8.01079C15.9583 12.7611 19.3915 16 24.2714 16ZM24.2714 12.4588C21.6371 12.4588 19.9313 10.6451 19.9313 8.01079C19.9313 5.31174 21.7019 3.54116 24.2714 3.54116C26.9272 3.54116 28.633 5.35492 28.633 8.01079C28.633 10.6883 26.884 12.4588 24.2714 12.4588Z" fill="#292929"/>
<path d="M34.8371 15.6761H46.1731V12.135H38.7021V0.323886H34.8371V15.6761Z" fill="#292929"/>
<path d="M47.9698 15.6761H59.3058V12.135H51.8348V0.323886H47.9698V15.6761Z" fill="#292929"/>
<path d="M61.1025 15.6761H72.9783V12.3293H64.7732V9.69501H71.4453V6.5641H64.7732V3.67071H72.6976V0.323886H61.1025V15.6761Z" fill="#292929"/>
<path d="M81.7443 6.93117V10.1484H86.0844V11.8111C85.1991 12.3941 84.1842 12.5668 82.9535 12.5668C79.8873 12.5668 77.9656 10.9258 77.9656 8.01079C77.9656 5.26855 79.7578 3.54116 82.5216 3.54116C84.1626 3.54116 85.6525 4.05938 86.6026 4.87989L88.9993 2.22402C87.4879 0.842105 85.3934 0 82.4568 0C77.4258 0 73.9926 3.08772 73.9926 8.01079C73.9926 12.9123 77.4258 16 82.7591 16C85.8253 16 88.1572 15.0715 89.5823 13.7112V6.93117H81.7443Z" fill="#292929"/>
<path d="M91.6484 15.6761H103.524V12.3293H95.3191V9.69501H101.991V6.5641H95.3191V3.67071H103.244V0.323886H91.6484V15.6761Z" fill="#292929"/>
</svg>
