<svg width="56" height="56" viewBox="0 0 56 56" fill="none" xmlns="http://www.w3.org/2000/svg">
<path d="M56 22.6523C56 31.7333 50.6426 39.6036 42.9603 43.1856C40.0289 44.5477 36.8448 45.3045 33.4079 45.3045C31.5379 45.3045 29.7184 45.1027 28 44.6487V55.3441C26.2816 55.7477 24.4621 56 22.5921 56C10.1083 56 0 45.8595 0 33.3477C0 24.2667 5.3574 16.3964 13.0397 12.8144C15.9711 11.4523 19.2058 10.6955 22.5921 10.6955C24.4621 10.6955 26.2816 10.8973 28 11.3514V0.655856C29.7184 0.201802 31.5379 0 33.4079 0C45.8917 0 56 10.1405 56 22.6523Z" fill="#FFCB47"/>
</svg>
