<svg width="182" height="24" viewBox="0 0 182 24" fill="none" xmlns="http://www.w3.org/2000/svg">
<path d="M24.0388 9.70811C24.0388 13.6 21.7445 16.973 18.4546 18.5081C17.1992 19.0919 15.8356 19.4162 14.3638 19.4162C13.5629 19.4162 12.7837 19.3297 12.0478 19.1351V23.7189C11.3119 23.8919 10.5327 24 9.73186 24C4.38569 24 0.0568085 19.6541 0.0568085 14.2919C0.0568085 10.4 2.35112 7.02703 5.64107 5.49189C6.89644 4.90811 8.28169 4.58378 9.73186 4.58378C10.5327 4.58378 11.3119 4.67027 12.0478 4.86486V0.281081C12.7837 0.0864865 13.5629 0 14.3638 0C19.7099 0 24.0388 4.34595 24.0388 9.70811Z" fill="#FFCB47"/>
<path d="M37.14 17C39.0834 17 40.4464 16.2982 41.3776 15.1781L39.5287 13.6262C39.0699 14.3009 38.2601 14.7733 37.221 14.7733C35.5746 14.7733 34.5219 13.7072 34.5219 11.9798C34.5219 10.2659 35.5746 9.24022 37.221 9.24022C38.2466 9.24022 39.0699 9.72605 39.5287 10.4008L41.3776 8.86235C40.4464 7.72874 38.9619 7.0135 37.14 7.0135C34.0496 7.0135 32.0388 8.88934 32.0388 11.9798C32.0388 15.0837 34.0496 17 37.14 17Z" fill="#292929"/>
<path d="M42.7357 16.7976H45.1514V7.20243H42.7357V16.7976Z" fill="#292929"/>
<path d="M53.638 7.20243V12.4926L48.3344 7.18893H47.1333V16.7976H49.4815V11.5074L54.7716 16.8246H55.9862V7.20243H53.638Z" fill="#292929"/>
<path d="M64.3383 7.20243V12.4926L59.0346 7.18893H57.8336V16.7976H60.1817V11.5074L65.4719 16.8246H66.6865V7.20243H64.3383Z" fill="#292929"/>
<path d="M75.5784 16.7976H78.1695L73.7565 7.18893H72.1641L67.7511 16.7976H70.3422L71.044 15.2321H74.8766L75.5784 16.7976ZM72.3125 12.0337L72.9603 10.1579L73.6216 12.0337L74.1614 13.3293H71.7727L72.3125 12.0337Z" fill="#292929"/>
<path d="M88.2213 7.18893L84.3617 12.1282L80.4886 7.18893H79.2605V16.7976H81.5682V12.2227L83.9433 15.2051H84.7666L87.1417 12.1957V16.7976H89.4494V7.18893H88.2213Z" fill="#292929"/>
<path d="M96.2173 17C99.3482 17 101.426 14.9352 101.426 12.0067C101.426 9.02429 99.2942 7 96.2173 7C93.1134 7 91.0216 9.06478 91.0216 12.0067C91.0216 14.9757 93.1674 17 96.2173 17ZM96.2173 14.7868C94.5709 14.7868 93.5047 13.6532 93.5047 12.0067C93.5047 10.3198 94.6114 9.21323 96.2173 9.21323C97.8772 9.21323 98.9433 10.3468 98.9433 12.0067C98.9433 13.6802 97.8502 14.7868 96.2173 14.7868Z" fill="#292929"/>
<path d="M109.498 7.20243V12.4926L104.195 7.18893H102.994V16.7976H105.342V11.5074L110.632 16.8246H111.847V7.20243H109.498Z" fill="#292929"/>
<path d="M121.305 17C123.248 17 124.611 16.2982 125.542 15.1781L123.693 13.6262C123.235 14.3009 122.425 14.7733 121.386 14.7733C119.739 14.7733 118.687 13.7072 118.687 11.9798C118.687 10.2659 119.739 9.24022 121.386 9.24022C122.411 9.24022 123.235 9.72605 123.693 10.4008L125.542 8.86235C124.611 7.72874 123.127 7.0135 121.305 7.0135C118.214 7.0135 116.203 8.88934 116.203 11.9798C116.203 15.0837 118.214 17 121.305 17Z" fill="#292929"/>
<path d="M131.546 17C134.677 17 136.755 14.9352 136.755 12.0067C136.755 9.02429 134.623 7 131.546 7C128.442 7 126.35 9.06478 126.35 12.0067C126.35 14.9757 128.496 17 131.546 17ZM131.546 14.7868C129.9 14.7868 128.833 13.6532 128.833 12.0067C128.833 10.3198 129.94 9.21323 131.546 9.21323C133.206 9.21323 134.272 10.3468 134.272 12.0067C134.272 13.6802 133.179 14.7868 131.546 14.7868Z" fill="#292929"/>
<path d="M138.322 16.7976H145.407V14.5843H140.738V7.20243H138.322V16.7976Z" fill="#292929"/>
<path d="M146.703 16.7976H153.788V14.5843H149.119V7.20243H146.703V16.7976Z" fill="#292929"/>
<path d="M155.084 16.7976H162.506V14.7058H157.378V13.0594H161.548V11.1026H157.378V9.2942H162.331V7.20243H155.084V16.7976Z" fill="#292929"/>
<path d="M168.158 11.332V13.3428H170.87V14.3819C170.317 14.7463 169.683 14.8543 168.914 14.8543C166.997 14.8543 165.796 13.8286 165.796 12.0067C165.796 10.2928 166.916 9.21323 168.644 9.21323C169.669 9.21323 170.601 9.53711 171.194 10.0499L172.692 8.39001C171.748 7.52632 170.439 7 168.603 7C165.459 7 163.313 8.92982 163.313 12.0067C163.313 15.0702 165.459 17 168.792 17C170.708 17 172.166 16.4197 173.057 15.5695V11.332H168.158Z" fill="#292929"/>
<path d="M174.521 16.7976H181.943V14.7058H176.815V13.0594H180.985V11.1026H176.815V9.2942H181.768V7.20243H174.521V16.7976Z" fill="#292929"/>
</svg>
