<svg width="198" height="56" viewBox="0 0 198 56" fill="none" xmlns="http://www.w3.org/2000/svg">
<path d="M56 22.6523C56 31.7333 50.6426 39.6036 42.9603 43.1856C40.0289 44.5477 36.8448 45.3045 33.4079 45.3045C31.5379 45.3045 29.7184 45.1027 28 44.6487V55.3441C26.2816 55.7477 24.4621 56 22.5921 56C10.1083 56 0 45.8595 0 33.3477C0 24.2667 5.3574 16.3964 13.0397 12.8144C15.9711 11.4523 19.2058 10.6955 22.5921 10.6955C24.4621 10.6955 26.2816 10.8973 28 11.3514V0.655856C29.7184 0.201802 31.5379 0 33.4079 0C45.8917 0 56 10.1405 56 22.6523Z" fill="#FFCB47"/>
<path d="M80.1619 26C83.2713 26 85.4521 24.8772 86.942 23.085L83.9838 20.6019C83.2497 21.6815 81.9541 22.4372 80.2915 22.4372C77.6572 22.4372 75.973 20.7314 75.973 17.9676C75.973 15.2254 77.6572 13.5843 80.2915 13.5843C81.9325 13.5843 83.2497 14.3617 83.9838 15.4413L86.942 12.9798C85.4521 11.166 83.0769 10.0216 80.1619 10.0216C75.2173 10.0216 72 13.0229 72 17.9676C72 22.9339 75.2173 26 80.1619 26Z" fill="#292929"/>
<path d="M88.8385 25.6761H92.7035V10.3239H88.8385V25.6761Z" fill="#292929"/>
<path d="M106.006 10.3239V18.7881L97.5198 10.3023H95.598V25.6761H99.3551V17.2119L107.819 25.7193H109.763V10.3239H106.006Z" fill="#292929"/>
<path d="M122.849 10.3239V18.7881L114.364 10.3023H112.442V25.6761H116.199V17.2119L124.663 25.7193H126.607V10.3239H122.849Z" fill="#292929"/>
<path d="M140.557 25.6761H144.703L137.642 10.3023H135.094L128.033 25.6761H132.179L133.302 23.1714H139.434L140.557 25.6761ZM135.332 18.054L136.368 15.0526L137.426 18.054L138.29 20.1269H134.468L135.332 18.054Z" fill="#292929"/>
<path d="M160.509 10.3023L154.334 18.2051L148.137 10.3023H146.172V25.6761H149.864V18.3563L153.664 23.1282H154.982L158.782 18.3131V25.6761H162.474V10.3023H160.509Z" fill="#292929"/>
<path d="M173.026 26C178.036 26 181.361 22.6964 181.361 18.0108C181.361 13.2389 177.949 10 173.026 10C168.06 10 164.713 13.3036 164.713 18.0108C164.713 22.7611 168.146 26 173.026 26ZM173.026 22.4588C170.392 22.4588 168.686 20.6451 168.686 18.0108C168.686 15.3117 170.457 13.5412 173.026 13.5412C175.682 13.5412 177.388 15.3549 177.388 18.0108C177.388 20.6883 175.639 22.4588 173.026 22.4588Z" fill="#292929"/>
<path d="M194 10.3239V18.7881L185.514 10.3023H183.592V25.6761H187.349V17.2119L195.813 25.7193H197.757V10.3239H194Z" fill="#292929"/>
<path d="M80.1619 46C83.2713 46 85.4521 44.8772 86.942 43.085L83.9838 40.6019C83.2497 41.6815 81.9541 42.4372 80.2915 42.4372C77.6572 42.4372 75.973 40.7314 75.973 37.9676C75.973 35.2254 77.6572 33.5843 80.2915 33.5843C81.9325 33.5843 83.2497 34.3617 83.9838 35.4413L86.942 32.9798C85.4521 31.166 83.0769 30.0216 80.1619 30.0216C75.2173 30.0216 72 33.0229 72 37.9676C72 42.9339 75.2173 46 80.1619 46Z" fill="#292929"/>
<path d="M96.2714 46C101.281 46 104.606 42.6964 104.606 38.0108C104.606 33.2389 101.194 30 96.2714 30C91.3051 30 87.9583 33.3036 87.9583 38.0108C87.9583 42.7611 91.3915 46 96.2714 46ZM96.2714 42.4588C93.6371 42.4588 91.9313 40.6451 91.9313 38.0108C91.9313 35.3117 93.7019 33.5412 96.2714 33.5412C98.9272 33.5412 100.633 35.3549 100.633 38.0108C100.633 40.6883 98.884 42.4588 96.2714 42.4588Z" fill="#292929"/>
<path d="M106.837 45.6761H118.173V42.135H110.702V30.3239H106.837V45.6761Z" fill="#292929"/>
<path d="M119.97 45.6761H131.306V42.135H123.835V30.3239H119.97V45.6761Z" fill="#292929"/>
<path d="M133.102 45.6761H144.978V42.3293H136.773V39.695H143.445V36.5641H136.773V33.6707H144.698V30.3239H133.102V45.6761Z" fill="#292929"/>
<path d="M153.744 36.9312V40.1484H158.084V41.8111C157.199 42.3941 156.184 42.5668 154.953 42.5668C151.887 42.5668 149.966 40.9258 149.966 38.0108C149.966 35.2686 151.758 33.5412 154.522 33.5412C156.163 33.5412 157.653 34.0594 158.603 34.8799L160.999 32.224C159.488 30.8421 157.393 30 154.457 30C149.426 30 145.993 33.0877 145.993 38.0108C145.993 42.9123 149.426 46 154.759 46C157.825 46 160.157 45.0715 161.582 43.7112V36.9312H153.744Z" fill="#292929"/>
<path d="M163.648 45.6761H175.524V42.3293H167.319V39.695H173.991V36.5641H167.319V33.6707H175.244V30.3239H163.648V45.6761Z" fill="#292929"/>
</svg>
