<svg width="100" height="72" viewBox="0 0 100 72" fill="none" xmlns="http://www.w3.org/2000/svg">
<path d="M38 8L62 8V20C62 26.6274 56.6274 32 50 32C43.3726 32 38 26.6274 38 20V8Z" fill="#FE5F55"/>
<path d="M38 3C38 1.34315 39.3431 0 41 0L59 0C60.6569 0 62 1.34315 62 3C62 4.65685 60.6569 6 59 6L41 6C39.3431 6 38 4.65685 38 3Z" fill="#FE5F55"/>
<path d="M64 8L70 8V21C70 22.6569 68.6569 24 67 24C65.3431 24 64 22.6569 64 21V8Z" fill="#FE5F55"/>
<path d="M30 8L36 8V21C36 22.6569 34.6569 24 33 24C31.3431 24 30 22.6569 30 21V8Z" fill="#FE5F55"/>
<rect y="40" width="100" height="32" fill="#FE5F55"/>
</svg>
