<svg width="100" height="72" viewBox="0 0 100 72" fill="none" xmlns="http://www.w3.org/2000/svg">
<path d="M38.5 8.5H61.5V20C61.5 26.3513 56.3513 31.5 50 31.5C43.6487 31.5 38.5 26.3513 38.5 20V8.5Z" fill="#FFCB47" stroke="#FFCB47"/>
<path d="M38.5 3C38.5 1.61929 39.6193 0.5 41 0.5H59C60.3807 0.5 61.5 1.61929 61.5 3C61.5 4.38071 60.3807 5.5 59 5.5H41C39.6193 5.5 38.5 4.38071 38.5 3Z" fill="#FFCB47" stroke="#FFCB47"/>
<path d="M64.5 8.5H69.5V21C69.5 22.3807 68.3807 23.5 67 23.5C65.6193 23.5 64.5 22.3807 64.5 21V8.5Z" fill="#FFCB47" stroke="#FFCB47"/>
<path d="M30.5 8.5H35.5V21C35.5 22.3807 34.3807 23.5 33 23.5C31.6193 23.5 30.5 22.3807 30.5 21V8.5Z" fill="#FFCB47" stroke="#FFCB47"/>
<rect x="0.5" y="40.5" width="99" height="31" fill="#FFCB47" stroke="#FFCB47"/>
</svg>
